<?xml version="1.0" encoding="UTF-8" standalone="no"?>
<!DOCTYPE svg PUBLIC "-//W3C//DTD SVG 1.1//EN"
 "http://www.w3.org/Graphics/SVG/1.1/DTD/svg11.dtd">
<!-- Generated by graphviz version 5.0.0 (20220707.1540)
 -->
<!-- Title: StorageDiagram Pages: 1 -->
<svg width="1525pt" height="1859pt"
 viewBox="0.00 0.00 1524.62 1859.40" xmlns="http://www.w3.org/2000/svg" xmlns:xlink="http://www.w3.org/1999/xlink">
<g id="graph0" class="graph" transform="scale(1 1) rotate(0) translate(4 1855.4)">
<title>StorageDiagram</title>
<polygon fill="white" stroke="transparent" points="-4,4 -4,-1855.4 1520.62,-1855.4 1520.62,4 -4,4"/>
<!-- 11 -->
<g id="node1" class="node">
<title>11</title>
<polygon fill="#f2f2f2" stroke="black" points="0,-611.5 0,-1206.7 878.93,-1206.7 878.93,-611.5 0,-611.5"/>
<text text-anchor="middle" x="439.47" y="-1190.1" font-family="Courier New" font-size="14.00">Marketplace &lt;&lt;Contract&gt;&gt;</text>
<polyline fill="none" stroke="black" points="0,-1181.9 878.93,-1181.9 "/>
<text text-anchor="middle" x="37.4" y="-1165.3" font-family="Courier New" font-size="14.00">slot</text>
<polyline fill="none" stroke="black" points="0,-1157.1 74.81,-1157.1 "/>
<text text-anchor="middle" x="37.4" y="-1140.5" font-family="Courier New" font-size="14.00">0</text>
<polyline fill="none" stroke="black" points="0,-1132.3 74.81,-1132.3 "/>
<text text-anchor="middle" x="37.4" y="-1115.7" font-family="Courier New" font-size="14.00">1&#45;50</text>
<polyline fill="none" stroke="black" points="0,-1107.5 74.81,-1107.5 "/>
<text text-anchor="middle" x="37.4" y="-1090.9" font-family="Courier New" font-size="14.00">51</text>
<polyline fill="none" stroke="black" points="0,-1082.7 74.81,-1082.7 "/>
<text text-anchor="middle" x="37.4" y="-1066.1" font-family="Courier New" font-size="14.00">52&#45;100</text>
<polyline fill="none" stroke="black" points="0,-1057.9 74.81,-1057.9 "/>
<text text-anchor="middle" x="37.4" y="-1041.3" font-family="Courier New" font-size="14.00">101&#45;150</text>
<polyline fill="none" stroke="black" points="0,-1033.1 74.81,-1033.1 "/>
<text text-anchor="middle" x="37.4" y="-1016.5" font-family="Courier New" font-size="14.00">151</text>
<polyline fill="none" stroke="black" points="0,-1008.3 74.81,-1008.3 "/>
<text text-anchor="middle" x="37.4" y="-991.7" font-family="Courier New" font-size="14.00">152&#45;200</text>
<polyline fill="none" stroke="black" points="0,-983.5 74.81,-983.5 "/>
<text text-anchor="middle" x="37.4" y="-966.9" font-family="Courier New" font-size="14.00">201</text>
<polyline fill="none" stroke="black" points="0,-958.7 74.81,-958.7 "/>
<text text-anchor="middle" x="37.4" y="-942.1" font-family="Courier New" font-size="14.00">202&#45;250</text>
<polyline fill="none" stroke="black" points="0,-933.9 74.81,-933.9 "/>
<text text-anchor="middle" x="37.4" y="-917.3" font-family="Courier New" font-size="14.00">251&#45;300</text>
<polyline fill="none" stroke="black" points="0,-909.1 74.81,-909.1 "/>
<text text-anchor="middle" x="37.4" y="-892.5" font-family="Courier New" font-size="14.00">301&#45;350</text>
<polyline fill="none" stroke="black" points="0,-884.3 74.81,-884.3 "/>
<text text-anchor="middle" x="37.4" y="-867.7" font-family="Courier New" font-size="14.00">351</text>
<polyline fill="none" stroke="black" points="0,-859.5 74.81,-859.5 "/>
<text text-anchor="middle" x="37.4" y="-842.9" font-family="Courier New" font-size="14.00">352</text>
<polyline fill="none" stroke="black" points="0,-834.7 74.81,-834.7 "/>
<text text-anchor="middle" x="37.4" y="-818.1" font-family="Courier New" font-size="14.00">353</text>
<polyline fill="none" stroke="black" points="0,-809.9 74.81,-809.9 "/>
<text text-anchor="middle" x="37.4" y="-793.3" font-family="Courier New" font-size="14.00">354</text>
<polyline fill="none" stroke="black" points="0,-785.1 74.81,-785.1 "/>
<text text-anchor="middle" x="37.4" y="-768.5" font-family="Courier New" font-size="14.00">355</text>
<polyline fill="none" stroke="black" points="0,-760.3 74.81,-760.3 "/>
<text text-anchor="middle" x="37.4" y="-743.7" font-family="Courier New" font-size="14.00">356</text>
<polyline fill="none" stroke="black" points="0,-735.5 74.81,-735.5 "/>
<text text-anchor="middle" x="37.4" y="-718.9" font-family="Courier New" font-size="14.00">357</text>
<polyline fill="none" stroke="black" points="0,-710.7 74.81,-710.7 "/>
<text text-anchor="middle" x="37.4" y="-694.1" font-family="Courier New" font-size="14.00">358</text>
<polyline fill="none" stroke="black" points="0,-685.9 74.81,-685.9 "/>
<text text-anchor="middle" x="37.4" y="-669.3" font-family="Courier New" font-size="14.00">359</text>
<polyline fill="none" stroke="black" points="0,-661.1 74.81,-661.1 "/>
<text text-anchor="middle" x="37.4" y="-644.5" font-family="Courier New" font-size="14.00">360</text>
<polyline fill="none" stroke="black" points="0,-636.3 74.81,-636.3 "/>
<text text-anchor="middle" x="37.4" y="-619.7" font-family="Courier New" font-size="14.00">361</text>
<polyline fill="none" stroke="black" points="74.81,-611.5 74.81,-1181.9 "/>
<text text-anchor="middle" x="476.87" y="-1165.3" font-family="Courier New" font-size="14.00">type: &lt;inherited contract&gt;.variable (bytes)</text>
<polyline fill="none" stroke="black" points="74.81,-1157.1 878.93,-1157.1 "/>
<text text-anchor="middle" x="150.02" y="-1140.5" font-family="Courier New" font-size="14.00">unallocated (30)</text>
<polyline fill="none" stroke="black" points="225.23,-1132.3 225.23,-1157.1 "/>
<text text-anchor="middle" x="388.66" y="-1140.5" font-family="Courier New" font-size="14.00">bool: Initializable._initializing (1)</text>
<polyline fill="none" stroke="black" points="552.08,-1132.3 552.08,-1157.1 "/>
<text text-anchor="middle" x="715.51" y="-1140.5" font-family="Courier New" font-size="14.00">uint8: Initializable._initialized (1)</text>
<polyline fill="none" stroke="black" points="74.81,-1132.3 878.93,-1132.3 "/>
<text text-anchor="middle" x="476.64" y="-1115.7" font-family="Courier New" font-size="14.00">uint256[50]: ContextUpgradeable.__gap (1600)</text>
<polyline fill="none" stroke="black" points="74.81,-1107.5 878.93,-1107.5 "/>
<text text-anchor="middle" x="231.52" y="-1090.9" font-family="Courier New" font-size="14.00">unallocated (31)</text>
<polyline fill="none" stroke="black" points="388.23,-1082.7 388.23,-1107.5 "/>
<text text-anchor="middle" x="633.16" y="-1090.9" font-family="Courier New" font-size="14.00">bool: PausableUpgradeable._paused (1)</text>
<polyline fill="none" stroke="black" points="74.81,-1082.7 878.93,-1082.7 "/>
<text text-anchor="middle" x="476.84" y="-1066.1" font-family="Courier New" font-size="14.00">uint256[49]: PausableUpgradeable.__gap (1568)</text>
<polyline fill="none" stroke="black" points="74.81,-1057.9 878.93,-1057.9 "/>
<text text-anchor="middle" x="476.44" y="-1041.3" font-family="Courier New" font-size="14.00">uint256[50]: ERC165Upgradeable.__gap (1600)</text>
<polyline fill="none" stroke="black" points="74.81,-1033.1 878.93,-1033.1 "/>
<text text-anchor="middle" x="476.65" y="-1016.5" font-family="Courier New" font-size="14.00">mapping(bytes32=&gt;RoleData): AccessControlUpgradeable._roles (32)</text>
<polyline fill="none" stroke="black" points="74.81,-1008.3 878.93,-1008.3 "/>
<text text-anchor="middle" x="476.84" y="-991.7" font-family="Courier New" font-size="14.00">uint256[49]: AccessControlUpgradeable.__gap (1568)</text>
<polyline fill="none" stroke="black" points="74.81,-983.5 878.93,-983.5 "/>
<text text-anchor="middle" x="476.44" y="-966.9" font-family="Courier New" font-size="14.00">uint256: ReentrancyGuardUpgradeable._status (32)</text>
<polyline fill="none" stroke="black" points="74.81,-958.7 878.93,-958.7 "/>
<text text-anchor="middle" x="476.75" y="-942.1" font-family="Courier New" font-size="14.00">uint256[49]: ReentrancyGuardUpgradeable.__gap (1568)</text>
<polyline fill="none" stroke="black" points="74.81,-933.9 878.93,-933.9 "/>
<text text-anchor="middle" x="476.54" y="-917.3" font-family="Courier New" font-size="14.00">uint256[50]: ERC1967UpgradeUpgradeable.__gap (1600)</text>
<polyline fill="none" stroke="black" points="74.81,-909.1 878.93,-909.1 "/>
<text text-anchor="middle" x="476.54" y="-892.5" font-family="Courier New" font-size="14.00">uint256[50]: UUPSUpgradeable.__gap (1600)</text>
<polyline fill="none" stroke="black" points="74.81,-884.3 878.93,-884.3 "/>
<text text-anchor="middle" x="476.54" y="-867.7" font-family="Courier New" font-size="14.00">mapping(bytes32=&gt;Auction): _auctions (32)</text>
<polyline fill="none" stroke="black" points="74.81,-859.5 878.93,-859.5 "/>
<text text-anchor="middle" x="476.54" y="-842.9" font-family="Courier New" font-size="14.00">mapping(address=&gt;bool): _allowedNfts (32)</text>
<polyline fill="none" stroke="black" points="74.81,-834.7 878.93,-834.7 "/>
<text text-anchor="middle" x="476.63" y="-818.1" font-family="Courier New" font-size="14.00">uint: _auctionCount (32)</text>
<polyline fill="none" stroke="black" points="74.81,-809.9 878.93,-809.9 "/>
<text text-anchor="middle" x="476.63" y="-793.3" font-family="Courier New" font-size="14.00">bytes32[]: _openAuctions (32)</text>
<polyline fill="none" stroke="black" points="74.81,-785.1 878.93,-785.1 "/>
<text text-anchor="middle" x="265.02" y="-768.5" font-family="Courier New" font-size="14.00">unallocated (31)</text>
<polyline fill="none" stroke="black" points="455.23,-760.3 455.23,-785.1 "/>
<text text-anchor="middle" x="666.95" y="-768.5" font-family="Courier New" font-size="14.00">bool: listingOpen (1)</text>
<polyline fill="none" stroke="black" points="74.81,-760.3 878.93,-760.3 "/>
<text text-anchor="middle" x="476.52" y="-743.7" font-family="Courier New" font-size="14.00">uint: auctionFee (32)</text>
<polyline fill="none" stroke="black" points="74.81,-735.5 878.93,-735.5 "/>
<text text-anchor="middle" x="476.43" y="-718.9" font-family="Courier New" font-size="14.00">uint: auctionCancellationFee (32)</text>
<polyline fill="none" stroke="black" points="74.81,-710.7 878.93,-710.7 "/>
<text text-anchor="middle" x="476.63" y="-694.1" font-family="Courier New" font-size="14.00">uint: minAuctionDuration (32)</text>
<polyline fill="none" stroke="black" points="74.81,-685.9 878.93,-685.9 "/>
<text text-anchor="middle" x="476.63" y="-669.3" font-family="Courier New" font-size="14.00">uint: maxAuctionDuration (32)</text>
<polyline fill="none" stroke="black" points="74.81,-661.1 878.93,-661.1 "/>
<text text-anchor="middle" x="254.52" y="-644.5" font-family="Courier New" font-size="14.00">unallocated (12)</text>
<polyline fill="none" stroke="black" points="434.23,-636.3 434.23,-661.1 "/>
<text text-anchor="middle" x="656.45" y="-644.5" font-family="Courier New" font-size="14.00">address: erc20Address (20)</text>
<polyline fill="none" stroke="black" points="74.81,-636.3 878.93,-636.3 "/>
<text text-anchor="middle" x="240.02" y="-619.7" font-family="Courier New" font-size="14.00">unallocated (12)</text>
<polyline fill="none" stroke="black" points="405.23,-611.5 405.23,-636.3 "/>
<text text-anchor="middle" x="641.85" y="-619.7" font-family="Courier New" font-size="14.00">address: auctionFeeRecipient (20)</text>
</g>
<!-- 1 -->
<g id="node2" class="node">
<title>1</title>
<polygon fill="#f2f2f2" stroke="black" points="1090.16,-1677.3 1090.16,-1850.9 1341.4,-1850.9 1341.4,-1677.3 1090.16,-1677.3"/>
<text text-anchor="middle" x="1215.78" y="-1834.3" font-family="Courier New" font-size="14.00">uint256[50]: __gap &lt;&lt;Array&gt;&gt;</text>
<polyline fill="none" stroke="black" points="1090.16,-1826.1 1341.4,-1826.1 "/>
<text text-anchor="middle" x="1114.96" y="-1809.5" font-family="Courier New" font-size="14.00">slot</text>
<polyline fill="none" stroke="black" points="1090.16,-1801.3 1139.76,-1801.3 "/>
<text text-anchor="middle" x="1114.96" y="-1784.7" font-family="Courier New" font-size="14.00">1</text>
<polyline fill="none" stroke="black" points="1090.16,-1776.5 1139.76,-1776.5 "/>
<text text-anchor="middle" x="1114.96" y="-1759.9" font-family="Courier New" font-size="14.00">2</text>
<polyline fill="none" stroke="black" points="1090.16,-1751.7 1139.76,-1751.7 "/>
<text text-anchor="middle" x="1114.96" y="-1735.1" font-family="Courier New" font-size="14.00">3&#45;48</text>
<polyline fill="none" stroke="black" points="1090.16,-1726.9 1139.76,-1726.9 "/>
<text text-anchor="middle" x="1114.96" y="-1710.3" font-family="Courier New" font-size="14.00">49</text>
<polyline fill="none" stroke="black" points="1090.16,-1702.1 1139.76,-1702.1 "/>
<text text-anchor="middle" x="1114.96" y="-1685.5" font-family="Courier New" font-size="14.00">50</text>
<polyline fill="none" stroke="black" points="1139.76,-1677.3 1139.76,-1826.1 "/>
<text text-anchor="middle" x="1240.18" y="-1809.5" font-family="Courier New" font-size="14.00">type: variable (bytes)</text>
<polyline fill="none" stroke="black" points="1139.76,-1801.3 1340.59,-1801.3 "/>
<text text-anchor="middle" x="1240.17" y="-1784.7" font-family="Courier New" font-size="14.00">uint256 (32)</text>
<polyline fill="none" stroke="black" points="1139.76,-1776.5 1340.59,-1776.5 "/>
<text text-anchor="middle" x="1240.17" y="-1759.9" font-family="Courier New" font-size="14.00">uint256 (32)</text>
<polyline fill="none" stroke="black" points="1139.76,-1751.7 1340.59,-1751.7 "/>
<text text-anchor="middle" x="1239.97" y="-1735.1" font-family="Courier New" font-size="14.00">&#45;&#45;&#45;&#45; (1472)</text>
<polyline fill="none" stroke="black" points="1139.76,-1726.9 1340.59,-1726.9 "/>
<text text-anchor="middle" x="1240.17" y="-1710.3" font-family="Courier New" font-size="14.00">uint256 (32)</text>
<polyline fill="none" stroke="black" points="1139.76,-1702.1 1340.59,-1702.1 "/>
<text text-anchor="middle" x="1240.17" y="-1685.5" font-family="Courier New" font-size="14.00">uint256 (32)</text>
</g>
<!-- 11&#45;&gt;1 -->
<g id="edge1" class="edge">
<title>11:8&#45;&gt;1</title>
<path fill="none" stroke="black" d="M878.93,-1120.1C939.84,-1120.1 877.5,-1619.05 914.93,-1667.1 954.19,-1717.49 1020,-1742.09 1079.99,-1753.95"/>
<polygon fill="black" stroke="black" points="1079.47,-1757.42 1089.94,-1755.81 1080.76,-1750.53 1079.47,-1757.42"/>
</g>
<!-- 2 -->
<g id="node3" class="node">
<title>2</title>
<polygon fill="#f2f2f2" stroke="black" points="1086.36,-1484.3 1086.36,-1657.9 1345.19,-1657.9 1345.19,-1484.3 1086.36,-1484.3"/>
<text text-anchor="middle" x="1215.78" y="-1641.3" font-family="Courier New" font-size="14.00">uint256[49]: __gap &lt;&lt;Array&gt;&gt;</text>
<polyline fill="none" stroke="black" points="1086.36,-1633.1 1345.19,-1633.1 "/>
<text text-anchor="middle" x="1115.36" y="-1616.5" font-family="Courier New" font-size="14.00">slot</text>
<polyline fill="none" stroke="black" points="1086.36,-1608.3 1144.36,-1608.3 "/>
<text text-anchor="middle" x="1115.36" y="-1591.7" font-family="Courier New" font-size="14.00">52</text>
<polyline fill="none" stroke="black" points="1086.36,-1583.5 1144.36,-1583.5 "/>
<text text-anchor="middle" x="1115.36" y="-1566.9" font-family="Courier New" font-size="14.00">53</text>
<polyline fill="none" stroke="black" points="1086.36,-1558.7 1144.36,-1558.7 "/>
<text text-anchor="middle" x="1115.36" y="-1542.1" font-family="Courier New" font-size="14.00">54&#45;98</text>
<polyline fill="none" stroke="black" points="1086.36,-1533.9 1144.36,-1533.9 "/>
<text text-anchor="middle" x="1115.36" y="-1517.3" font-family="Courier New" font-size="14.00">99</text>
<polyline fill="none" stroke="black" points="1086.36,-1509.1 1144.36,-1509.1 "/>
<text text-anchor="middle" x="1115.36" y="-1492.5" font-family="Courier New" font-size="14.00">100</text>
<polyline fill="none" stroke="black" points="1144.36,-1484.3 1144.36,-1633.1 "/>
<text text-anchor="middle" x="1244.78" y="-1616.5" font-family="Courier New" font-size="14.00">type: variable (bytes)</text>
<polyline fill="none" stroke="black" points="1144.36,-1608.3 1345.19,-1608.3 "/>
<text text-anchor="middle" x="1244.77" y="-1591.7" font-family="Courier New" font-size="14.00">uint256 (32)</text>
<polyline fill="none" stroke="black" points="1144.36,-1583.5 1345.19,-1583.5 "/>
<text text-anchor="middle" x="1244.77" y="-1566.9" font-family="Courier New" font-size="14.00">uint256 (32)</text>
<polyline fill="none" stroke="black" points="1144.36,-1558.7 1345.19,-1558.7 "/>
<text text-anchor="middle" x="1244.57" y="-1542.1" font-family="Courier New" font-size="14.00">&#45;&#45;&#45;&#45; (1440)</text>
<polyline fill="none" stroke="black" points="1144.36,-1533.9 1345.19,-1533.9 "/>
<text text-anchor="middle" x="1244.77" y="-1517.3" font-family="Courier New" font-size="14.00">uint256 (32)</text>
<polyline fill="none" stroke="black" points="1144.36,-1509.1 1345.19,-1509.1 "/>
<text text-anchor="middle" x="1244.77" y="-1492.5" font-family="Courier New" font-size="14.00">uint256 (32)</text>
</g>
<!-- 11&#45;&gt;2 -->
<g id="edge2" class="edge">
<title>11:15&#45;&gt;2</title>
<path fill="none" stroke="black" d="M878.93,-1070.1C924,-1070.1 886.83,-1438.87 914.93,-1474.1 953.8,-1522.82 1017.44,-1547.39 1076.12,-1559.65"/>
<polygon fill="black" stroke="black" points="1075.76,-1563.15 1086.25,-1561.66 1077.12,-1556.28 1075.76,-1563.15"/>
</g>
<!-- 3 -->
<g id="node4" class="node">
<title>3</title>
<polygon fill="#f2f2f2" stroke="black" points="1077.96,-1291.3 1077.96,-1464.9 1353.6,-1464.9 1353.6,-1291.3 1077.96,-1291.3"/>
<text text-anchor="middle" x="1215.78" y="-1448.3" font-family="Courier New" font-size="14.00">uint256[50]: __gap &lt;&lt;Array&gt;&gt;</text>
<polyline fill="none" stroke="black" points="1077.96,-1440.1 1353.6,-1440.1 "/>
<text text-anchor="middle" x="1115.36" y="-1423.5" font-family="Courier New" font-size="14.00">slot</text>
<polyline fill="none" stroke="black" points="1077.96,-1415.3 1152.77,-1415.3 "/>
<text text-anchor="middle" x="1115.36" y="-1398.7" font-family="Courier New" font-size="14.00">101</text>
<polyline fill="none" stroke="black" points="1077.96,-1390.5 1152.77,-1390.5 "/>
<text text-anchor="middle" x="1115.36" y="-1373.9" font-family="Courier New" font-size="14.00">102</text>
<polyline fill="none" stroke="black" points="1077.96,-1365.7 1152.77,-1365.7 "/>
<text text-anchor="middle" x="1115.36" y="-1349.1" font-family="Courier New" font-size="14.00">103&#45;148</text>
<polyline fill="none" stroke="black" points="1077.96,-1340.9 1152.77,-1340.9 "/>
<text text-anchor="middle" x="1115.36" y="-1324.3" font-family="Courier New" font-size="14.00">149</text>
<polyline fill="none" stroke="black" points="1077.96,-1316.1 1152.77,-1316.1 "/>
<text text-anchor="middle" x="1115.36" y="-1299.5" font-family="Courier New" font-size="14.00">150</text>
<polyline fill="none" stroke="black" points="1152.77,-1291.3 1152.77,-1440.1 "/>
<text text-anchor="middle" x="1253.18" y="-1423.5" font-family="Courier New" font-size="14.00">type: variable (bytes)</text>
<polyline fill="none" stroke="black" points="1152.77,-1415.3 1353.6,-1415.3 "/>
<text text-anchor="middle" x="1253.17" y="-1398.7" font-family="Courier New" font-size="14.00">uint256 (32)</text>
<polyline fill="none" stroke="black" points="1152.77,-1390.5 1353.6,-1390.5 "/>
<text text-anchor="middle" x="1253.17" y="-1373.9" font-family="Courier New" font-size="14.00">uint256 (32)</text>
<polyline fill="none" stroke="black" points="1152.77,-1365.7 1353.6,-1365.7 "/>
<text text-anchor="middle" x="1252.97" y="-1349.1" font-family="Courier New" font-size="14.00">&#45;&#45;&#45;&#45; (1472)</text>
<polyline fill="none" stroke="black" points="1152.77,-1340.9 1353.6,-1340.9 "/>
<text text-anchor="middle" x="1253.17" y="-1324.3" font-family="Courier New" font-size="14.00">uint256 (32)</text>
<polyline fill="none" stroke="black" points="1152.77,-1316.1 1353.6,-1316.1 "/>
<text text-anchor="middle" x="1253.17" y="-1299.5" font-family="Courier New" font-size="14.00">uint256 (32)</text>
</g>
<!-- 11&#45;&gt;3 -->
<g id="edge3" class="edge">
<title>11:21&#45;&gt;3</title>
<path fill="none" stroke="black" d="M878.93,-1045.1C932.2,-1045.1 880.38,-1241.56 914.93,-1282.1 953.06,-1326.84 1012.07,-1350.93 1067.69,-1363.83"/>
<polygon fill="black" stroke="black" points="1067.15,-1367.29 1077.67,-1366.03 1068.66,-1360.45 1067.15,-1367.29"/>
</g>
<!-- 4 -->
<g id="node5" class="node">
<title>4</title>
<polygon fill="#f2f2f2" stroke="black" points="1023.35,-1173.5 1023.35,-1272.7 1408.21,-1272.7 1408.21,-1173.5 1023.35,-1173.5"/>
<text text-anchor="middle" x="1215.78" y="-1256.1" font-family="Courier New" font-size="14.00">RoleData &lt;&lt;Struct&gt;&gt;</text>
<polyline fill="none" stroke="black" points="1023.35,-1247.9 1408.21,-1247.9 "/>
<text text-anchor="middle" x="1056.55" y="-1231.3" font-family="Courier New" font-size="14.00">offset</text>
<polyline fill="none" stroke="black" points="1023.35,-1223.1 1089.76,-1223.1 "/>
<text text-anchor="middle" x="1056.55" y="-1206.5" font-family="Courier New" font-size="14.00">0</text>
<polyline fill="none" stroke="black" points="1023.35,-1198.3 1089.76,-1198.3 "/>
<text text-anchor="middle" x="1056.55" y="-1181.7" font-family="Courier New" font-size="14.00">1</text>
<polyline fill="none" stroke="black" points="1089.76,-1173.5 1089.76,-1247.9 "/>
<text text-anchor="middle" x="1248.98" y="-1231.3" font-family="Courier New" font-size="14.00">type: variable (bytes)</text>
<polyline fill="none" stroke="black" points="1089.76,-1223.1 1408.21,-1223.1 "/>
<text text-anchor="middle" x="1248.98" y="-1206.5" font-family="Courier New" font-size="14.00">mapping(address=&gt;bool): members (32)</text>
<polyline fill="none" stroke="black" points="1089.76,-1198.3 1408.21,-1198.3 "/>
<text text-anchor="middle" x="1248.87" y="-1181.7" font-family="Courier New" font-size="14.00">bytes32: adminRole (32)</text>
</g>
<!-- 11&#45;&gt;4 -->
<g id="edge4" class="edge">
<title>11:24&#45;&gt;4</title>
<path fill="none" stroke="black" d="M878.93,-1021.1C944.47,-1021.1 867.39,-1118.99 914.93,-1164.1 942.05,-1189.83 976.95,-1205.87 1013.29,-1215.6"/>
<polygon fill="black" stroke="black" points="1012.52,-1219.01 1023.07,-1218.06 1014.22,-1212.22 1012.52,-1219.01"/>
</g>
<!-- 5 -->
<g id="node6" class="node">
<title>5</title>
<polygon fill="#f2f2f2" stroke="black" points="1077.96,-981.3 1077.96,-1154.9 1353.6,-1154.9 1353.6,-981.3 1077.96,-981.3"/>
<text text-anchor="middle" x="1215.78" y="-1138.3" font-family="Courier New" font-size="14.00">uint256[49]: __gap &lt;&lt;Array&gt;&gt;</text>
<polyline fill="none" stroke="black" points="1077.96,-1130.1 1353.6,-1130.1 "/>
<text text-anchor="middle" x="1115.36" y="-1113.5" font-family="Courier New" font-size="14.00">slot</text>
<polyline fill="none" stroke="black" points="1077.96,-1105.3 1152.77,-1105.3 "/>
<text text-anchor="middle" x="1115.36" y="-1088.7" font-family="Courier New" font-size="14.00">152</text>
<polyline fill="none" stroke="black" points="1077.96,-1080.5 1152.77,-1080.5 "/>
<text text-anchor="middle" x="1115.36" y="-1063.9" font-family="Courier New" font-size="14.00">153</text>
<polyline fill="none" stroke="black" points="1077.96,-1055.7 1152.77,-1055.7 "/>
<text text-anchor="middle" x="1115.36" y="-1039.1" font-family="Courier New" font-size="14.00">154&#45;198</text>
<polyline fill="none" stroke="black" points="1077.96,-1030.9 1152.77,-1030.9 "/>
<text text-anchor="middle" x="1115.36" y="-1014.3" font-family="Courier New" font-size="14.00">199</text>
<polyline fill="none" stroke="black" points="1077.96,-1006.1 1152.77,-1006.1 "/>
<text text-anchor="middle" x="1115.36" y="-989.5" font-family="Courier New" font-size="14.00">200</text>
<polyline fill="none" stroke="black" points="1152.77,-981.3 1152.77,-1130.1 "/>
<text text-anchor="middle" x="1253.18" y="-1113.5" font-family="Courier New" font-size="14.00">type: variable (bytes)</text>
<polyline fill="none" stroke="black" points="1152.77,-1105.3 1353.6,-1105.3 "/>
<text text-anchor="middle" x="1253.17" y="-1088.7" font-family="Courier New" font-size="14.00">uint256 (32)</text>
<polyline fill="none" stroke="black" points="1152.77,-1080.5 1353.6,-1080.5 "/>
<text text-anchor="middle" x="1253.17" y="-1063.9" font-family="Courier New" font-size="14.00">uint256 (32)</text>
<polyline fill="none" stroke="black" points="1152.77,-1055.7 1353.6,-1055.7 "/>
<text text-anchor="middle" x="1252.97" y="-1039.1" font-family="Courier New" font-size="14.00">&#45;&#45;&#45;&#45; (1440)</text>
<polyline fill="none" stroke="black" points="1152.77,-1030.9 1353.6,-1030.9 "/>
<text text-anchor="middle" x="1253.17" y="-1014.3" font-family="Courier New" font-size="14.00">uint256 (32)</text>
<polyline fill="none" stroke="black" points="1152.77,-1006.1 1353.6,-1006.1 "/>
<text text-anchor="middle" x="1253.17" y="-989.5" font-family="Courier New" font-size="14.00">uint256 (32)</text>
</g>
<!-- 11&#45;&gt;5 -->
<g id="edge5" class="edge">
<title>11:30&#45;&gt;5</title>
<path fill="none" stroke="black" d="M878.93,-996.1C941.64,-996.1 1009.51,-1008.25 1067.71,-1022.57"/>
<polygon fill="black" stroke="black" points="1067.16,-1026.04 1077.71,-1025.07 1068.86,-1019.25 1067.16,-1026.04"/>
</g>
<!-- 6 -->
<g id="node7" class="node">
<title>6</title>
<polygon fill="#f2f2f2" stroke="black" points="1077.96,-788.3 1077.96,-961.9 1353.6,-961.9 1353.6,-788.3 1077.96,-788.3"/>
<text text-anchor="middle" x="1215.78" y="-945.3" font-family="Courier New" font-size="14.00">uint256[49]: __gap &lt;&lt;Array&gt;&gt;</text>
<polyline fill="none" stroke="black" points="1077.96,-937.1 1353.6,-937.1 "/>
<text text-anchor="middle" x="1115.36" y="-920.5" font-family="Courier New" font-size="14.00">slot</text>
<polyline fill="none" stroke="black" points="1077.96,-912.3 1152.77,-912.3 "/>
<text text-anchor="middle" x="1115.36" y="-895.7" font-family="Courier New" font-size="14.00">202</text>
<polyline fill="none" stroke="black" points="1077.96,-887.5 1152.77,-887.5 "/>
<text text-anchor="middle" x="1115.36" y="-870.9" font-family="Courier New" font-size="14.00">203</text>
<polyline fill="none" stroke="black" points="1077.96,-862.7 1152.77,-862.7 "/>
<text text-anchor="middle" x="1115.36" y="-846.1" font-family="Courier New" font-size="14.00">204&#45;248</text>
<polyline fill="none" stroke="black" points="1077.96,-837.9 1152.77,-837.9 "/>
<text text-anchor="middle" x="1115.36" y="-821.3" font-family="Courier New" font-size="14.00">249</text>
<polyline fill="none" stroke="black" points="1077.96,-813.1 1152.77,-813.1 "/>
<text text-anchor="middle" x="1115.36" y="-796.5" font-family="Courier New" font-size="14.00">250</text>
<polyline fill="none" stroke="black" points="1152.77,-788.3 1152.77,-937.1 "/>
<text text-anchor="middle" x="1253.18" y="-920.5" font-family="Courier New" font-size="14.00">type: variable (bytes)</text>
<polyline fill="none" stroke="black" points="1152.77,-912.3 1353.6,-912.3 "/>
<text text-anchor="middle" x="1253.17" y="-895.7" font-family="Courier New" font-size="14.00">uint256 (32)</text>
<polyline fill="none" stroke="black" points="1152.77,-887.5 1353.6,-887.5 "/>
<text text-anchor="middle" x="1253.17" y="-870.9" font-family="Courier New" font-size="14.00">uint256 (32)</text>
<polyline fill="none" stroke="black" points="1152.77,-862.7 1353.6,-862.7 "/>
<text text-anchor="middle" x="1252.97" y="-846.1" font-family="Courier New" font-size="14.00">&#45;&#45;&#45;&#45; (1440)</text>
<polyline fill="none" stroke="black" points="1152.77,-837.9 1353.6,-837.9 "/>
<text text-anchor="middle" x="1253.17" y="-821.3" font-family="Courier New" font-size="14.00">uint256 (32)</text>
<polyline fill="none" stroke="black" points="1152.77,-813.1 1353.6,-813.1 "/>
<text text-anchor="middle" x="1253.17" y="-796.5" font-family="Courier New" font-size="14.00">uint256 (32)</text>
</g>
<!-- 11&#45;&gt;6 -->
<g id="edge6" class="edge">
<title>11:37&#45;&gt;6</title>
<path fill="none" stroke="black" d="M878.93,-946.1C941.61,-946.1 1009.46,-934.12 1067.67,-920"/>
<polygon fill="black" stroke="black" points="1068.8,-923.32 1077.67,-917.53 1067.12,-916.53 1068.8,-923.32"/>
</g>
<!-- 7 -->
<g id="node8" class="node">
<title>7</title>
<polygon fill="#f2f2f2" stroke="black" points="1077.96,-595.3 1077.96,-768.9 1353.6,-768.9 1353.6,-595.3 1077.96,-595.3"/>
<text text-anchor="middle" x="1215.78" y="-752.3" font-family="Courier New" font-size="14.00">uint256[50]: __gap &lt;&lt;Array&gt;&gt;</text>
<polyline fill="none" stroke="black" points="1077.96,-744.1 1353.6,-744.1 "/>
<text text-anchor="middle" x="1115.36" y="-727.5" font-family="Courier New" font-size="14.00">slot</text>
<polyline fill="none" stroke="black" points="1077.96,-719.3 1152.77,-719.3 "/>
<text text-anchor="middle" x="1115.36" y="-702.7" font-family="Courier New" font-size="14.00">251</text>
<polyline fill="none" stroke="black" points="1077.96,-694.5 1152.77,-694.5 "/>
<text text-anchor="middle" x="1115.36" y="-677.9" font-family="Courier New" font-size="14.00">252</text>
<polyline fill="none" stroke="black" points="1077.96,-669.7 1152.77,-669.7 "/>
<text text-anchor="middle" x="1115.36" y="-653.1" font-family="Courier New" font-size="14.00">253&#45;298</text>
<polyline fill="none" stroke="black" points="1077.96,-644.9 1152.77,-644.9 "/>
<text text-anchor="middle" x="1115.36" y="-628.3" font-family="Courier New" font-size="14.00">299</text>
<polyline fill="none" stroke="black" points="1077.96,-620.1 1152.77,-620.1 "/>
<text text-anchor="middle" x="1115.36" y="-603.5" font-family="Courier New" font-size="14.00">300</text>
<polyline fill="none" stroke="black" points="1152.77,-595.3 1152.77,-744.1 "/>
<text text-anchor="middle" x="1253.18" y="-727.5" font-family="Courier New" font-size="14.00">type: variable (bytes)</text>
<polyline fill="none" stroke="black" points="1152.77,-719.3 1353.6,-719.3 "/>
<text text-anchor="middle" x="1253.17" y="-702.7" font-family="Courier New" font-size="14.00">uint256 (32)</text>
<polyline fill="none" stroke="black" points="1152.77,-694.5 1353.6,-694.5 "/>
<text text-anchor="middle" x="1253.17" y="-677.9" font-family="Courier New" font-size="14.00">uint256 (32)</text>
<polyline fill="none" stroke="black" points="1152.77,-669.7 1353.6,-669.7 "/>
<text text-anchor="middle" x="1252.97" y="-653.1" font-family="Courier New" font-size="14.00">&#45;&#45;&#45;&#45; (1472)</text>
<polyline fill="none" stroke="black" points="1152.77,-644.9 1353.6,-644.9 "/>
<text text-anchor="middle" x="1253.17" y="-628.3" font-family="Courier New" font-size="14.00">uint256 (32)</text>
<polyline fill="none" stroke="black" points="1152.77,-620.1 1353.6,-620.1 "/>
<text text-anchor="middle" x="1253.17" y="-603.5" font-family="Courier New" font-size="14.00">uint256 (32)</text>
</g>
<!-- 11&#45;&gt;7 -->
<g id="edge7" class="edge">
<title>11:43&#45;&gt;7</title>
<path fill="none" stroke="black" d="M878.93,-921.1C944.04,-921.1 870.4,-826.6 914.93,-779.1 954.73,-736.64 1013.22,-712.72 1068,-699.26"/>
<polygon fill="black" stroke="black" points="1068.89,-702.65 1077.82,-696.95 1067.28,-695.84 1068.89,-702.65"/>
</g>
<!-- 8 -->
<g id="node9" class="node">
<title>8</title>
<polygon fill="#f2f2f2" stroke="black" points="1077.96,-402.3 1077.96,-575.9 1353.6,-575.9 1353.6,-402.3 1077.96,-402.3"/>
<text text-anchor="middle" x="1215.78" y="-559.3" font-family="Courier New" font-size="14.00">uint256[50]: __gap &lt;&lt;Array&gt;&gt;</text>
<polyline fill="none" stroke="black" points="1077.96,-551.1 1353.6,-551.1 "/>
<text text-anchor="middle" x="1115.36" y="-534.5" font-family="Courier New" font-size="14.00">slot</text>
<polyline fill="none" stroke="black" points="1077.96,-526.3 1152.77,-526.3 "/>
<text text-anchor="middle" x="1115.36" y="-509.7" font-family="Courier New" font-size="14.00">301</text>
<polyline fill="none" stroke="black" points="1077.96,-501.5 1152.77,-501.5 "/>
<text text-anchor="middle" x="1115.36" y="-484.9" font-family="Courier New" font-size="14.00">302</text>
<polyline fill="none" stroke="black" points="1077.96,-476.7 1152.77,-476.7 "/>
<text text-anchor="middle" x="1115.36" y="-460.1" font-family="Courier New" font-size="14.00">303&#45;348</text>
<polyline fill="none" stroke="black" points="1077.96,-451.9 1152.77,-451.9 "/>
<text text-anchor="middle" x="1115.36" y="-435.3" font-family="Courier New" font-size="14.00">349</text>
<polyline fill="none" stroke="black" points="1077.96,-427.1 1152.77,-427.1 "/>
<text text-anchor="middle" x="1115.36" y="-410.5" font-family="Courier New" font-size="14.00">350</text>
<polyline fill="none" stroke="black" points="1152.77,-402.3 1152.77,-551.1 "/>
<text text-anchor="middle" x="1253.18" y="-534.5" font-family="Courier New" font-size="14.00">type: variable (bytes)</text>
<polyline fill="none" stroke="black" points="1152.77,-526.3 1353.6,-526.3 "/>
<text text-anchor="middle" x="1253.17" y="-509.7" font-family="Courier New" font-size="14.00">uint256 (32)</text>
<polyline fill="none" stroke="black" points="1152.77,-501.5 1353.6,-501.5 "/>
<text text-anchor="middle" x="1253.17" y="-484.9" font-family="Courier New" font-size="14.00">uint256 (32)</text>
<polyline fill="none" stroke="black" points="1152.77,-476.7 1353.6,-476.7 "/>
<text text-anchor="middle" x="1252.97" y="-460.1" font-family="Courier New" font-size="14.00">&#45;&#45;&#45;&#45; (1472)</text>
<polyline fill="none" stroke="black" points="1152.77,-451.9 1353.6,-451.9 "/>
<text text-anchor="middle" x="1253.17" y="-435.3" font-family="Courier New" font-size="14.00">uint256 (32)</text>
<polyline fill="none" stroke="black" points="1152.77,-427.1 1353.6,-427.1 "/>
<text text-anchor="middle" x="1253.17" y="-410.5" font-family="Courier New" font-size="14.00">uint256 (32)</text>
</g>
<!-- 11&#45;&gt;8 -->
<g id="edge8" class="edge">
<title>11:49&#45;&gt;8</title>
<path fill="none" stroke="black" d="M878.93,-897.1C948.51,-897.1 870.83,-639.91 914.93,-586.1 952.39,-540.39 1011.62,-515.99 1067.58,-503.05"/>
<polygon fill="black" stroke="black" points="1068.61,-506.4 1077.62,-500.84 1067.1,-499.57 1068.61,-506.4"/>
</g>
<!-- 9 -->
<g id="node10" class="node">
<title>9</title>
<polygon fill="#f2f2f2" stroke="black" points="914.93,-110.7 914.93,-383.5 1516.62,-383.5 1516.62,-110.7 914.93,-110.7"/>
<text text-anchor="middle" x="1215.78" y="-366.9" font-family="Courier New" font-size="14.00">Auction &lt;&lt;Struct&gt;&gt;</text>
<polyline fill="none" stroke="black" points="914.93,-358.7 1516.62,-358.7 "/>
<text text-anchor="middle" x="948.14" y="-342.1" font-family="Courier New" font-size="14.00">offset</text>
<polyline fill="none" stroke="black" points="914.93,-333.9 981.34,-333.9 "/>
<text text-anchor="middle" x="948.14" y="-317.3" font-family="Courier New" font-size="14.00">0</text>
<polyline fill="none" stroke="black" points="914.93,-309.1 981.34,-309.1 "/>
<text text-anchor="middle" x="948.14" y="-292.5" font-family="Courier New" font-size="14.00">1</text>
<polyline fill="none" stroke="black" points="914.93,-284.3 981.34,-284.3 "/>
<text text-anchor="middle" x="948.14" y="-267.7" font-family="Courier New" font-size="14.00">2</text>
<polyline fill="none" stroke="black" points="914.93,-259.5 981.34,-259.5 "/>
<text text-anchor="middle" x="948.14" y="-242.9" font-family="Courier New" font-size="14.00">3</text>
<polyline fill="none" stroke="black" points="914.93,-234.7 981.34,-234.7 "/>
<text text-anchor="middle" x="948.14" y="-218.1" font-family="Courier New" font-size="14.00">4</text>
<polyline fill="none" stroke="black" points="914.93,-209.9 981.34,-209.9 "/>
<text text-anchor="middle" x="948.14" y="-193.3" font-family="Courier New" font-size="14.00">5</text>
<polyline fill="none" stroke="black" points="914.93,-185.1 981.34,-185.1 "/>
<text text-anchor="middle" x="948.14" y="-168.5" font-family="Courier New" font-size="14.00">6</text>
<polyline fill="none" stroke="black" points="914.93,-160.3 981.34,-160.3 "/>
<text text-anchor="middle" x="948.14" y="-143.7" font-family="Courier New" font-size="14.00">7</text>
<polyline fill="none" stroke="black" points="914.93,-135.5 981.34,-135.5 "/>
<text text-anchor="middle" x="948.14" y="-118.9" font-family="Courier New" font-size="14.00">8</text>
<polyline fill="none" stroke="black" points="981.34,-110.7 981.34,-358.7 "/>
<text text-anchor="middle" x="1248.98" y="-342.1" font-family="Courier New" font-size="14.00">type: variable (bytes)</text>
<polyline fill="none" stroke="black" points="981.34,-333.9 1516.62,-333.9 "/>
<text text-anchor="middle" x="1106.55" y="-317.3" font-family="Courier New" font-size="14.00">unallocated (12)</text>
<polyline fill="none" stroke="black" points="1231.76,-309.1 1231.76,-333.9 "/>
<text text-anchor="middle" x="1373.78" y="-317.3" font-family="Courier New" font-size="14.00">address: seller (20)</text>
<polyline fill="none" stroke="black" points="981.34,-309.1 1516.62,-309.1 "/>
<text text-anchor="middle" x="1056.55" y="-292.5" font-family="Courier New" font-size="14.00">unallocated (11)</text>
<polyline fill="none" stroke="black" points="1131.76,-284.3 1131.76,-309.1 "/>
<text text-anchor="middle" x="1215.38" y="-292.5" font-family="Courier New" font-size="14.00">bool: isErc721 (1)</text>
<polyline fill="none" stroke="black" points="1298.99,-284.3 1298.99,-309.1 "/>
<text text-anchor="middle" x="1407.8" y="-292.5" font-family="Courier New" font-size="14.00">address: nftAddress (20)</text>
<polyline fill="none" stroke="black" points="981.34,-284.3 1516.62,-284.3 "/>
<text text-anchor="middle" x="1248.95" y="-267.7" font-family="Courier New" font-size="14.00">uint: tokenId (32)</text>
<polyline fill="none" stroke="black" points="981.34,-259.5 1516.62,-259.5 "/>
<text text-anchor="middle" x="1248.95" y="-242.9" font-family="Courier New" font-size="14.00">uint: endedAt (32)</text>
<polyline fill="none" stroke="black" points="981.34,-234.7 1516.62,-234.7 "/>
<text text-anchor="middle" x="1248.85" y="-218.1" font-family="Courier New" font-size="14.00">uint: startedAt (32)</text>
<polyline fill="none" stroke="black" points="981.34,-209.9 1516.62,-209.9 "/>
<text text-anchor="middle" x="1248.75" y="-193.3" font-family="Courier New" font-size="14.00">uint: amount (32)</text>
<polyline fill="none" stroke="black" points="981.34,-185.1 1516.62,-185.1 "/>
<text text-anchor="middle" x="1106.55" y="-168.5" font-family="Courier New" font-size="14.00">unallocated (12)</text>
<polyline fill="none" stroke="black" points="1231.76,-160.3 1231.76,-185.1 "/>
<text text-anchor="middle" x="1373.78" y="-168.5" font-family="Courier New" font-size="14.00">address: bidder (20)</text>
<polyline fill="none" stroke="black" points="981.34,-160.3 1516.62,-160.3 "/>
<text text-anchor="middle" x="1248.76" y="-143.7" font-family="Courier New" font-size="14.00">uint: askingPrice (32)</text>
<polyline fill="none" stroke="black" points="981.34,-135.5 1516.62,-135.5 "/>
<text text-anchor="middle" x="1248.56" y="-118.9" font-family="Courier New" font-size="14.00">uint: highestBid (32)</text>
</g>
<!-- 11&#45;&gt;9 -->
<g id="edge9" class="edge">
<title>11:60&#45;&gt;9</title>
<path fill="none" stroke="black" d="M878.93,-872.1C932.3,-872.1 884.96,-437.26 914.93,-393.1 915.21,-392.7 915.48,-392.29 915.76,-391.89"/>
<polygon fill="black" stroke="black" points="918.74,-393.75 921.79,-383.6 913.08,-389.63 918.74,-393.75"/>
</g>
<!-- 10 -->
<g id="node11" class="node">
<title>10</title>
<polygon fill="#f2f2f2" stroke="black" points="930.53,-0.5 930.53,-91.7 1501.02,-91.7 1501.02,-0.5 930.53,-0.5"/>
<text text-anchor="middle" x="1215.78" y="-75.1" font-family="Courier New" font-size="14.00">bytes32[]: _openAuctions &lt;&lt;Array&gt;&gt;</text>
<text text-anchor="middle" x="1215.78" y="-58.3" font-family="Courier New" font-size="14.00">0x29af0939a5988989bfee913a9ad10b9335cb63ebc9fd2b69e5f877d0455ac919</text>
<polyline fill="none" stroke="black" points="930.53,-50.1 1501.02,-50.1 "/>
<text text-anchor="middle" x="1039.24" y="-33.5" font-family="Courier New" font-size="14.00">offset</text>
<polyline fill="none" stroke="black" points="930.53,-25.3 1147.94,-25.3 "/>
<text text-anchor="middle" x="1039.24" y="-8.7" font-family="Courier New" font-size="14.00">0</text>
<polyline fill="none" stroke="black" points="1147.94,-0.5 1147.94,-50.1 "/>
<text text-anchor="middle" x="1324.35" y="-33.5" font-family="Courier New" font-size="14.00">type: variable (bytes)</text>
<polyline fill="none" stroke="black" points="1147.94,-25.3 1500.77,-25.3 "/>
<text text-anchor="middle" x="1324.35" y="-8.7" font-family="Courier New" font-size="14.00">bytes32 (32)</text>
</g>
<!-- 11&#45;&gt;10 -->
<g id="edge10" class="edge">
<title>11:64&#45;&gt;10</title>
<path fill="none" stroke="black" d="M878.93,-797.1C956.37,-797.1 863.84,-159.29 914.93,-101.1 917.48,-98.19 920.13,-95.41 922.87,-92.74"/>
<polygon fill="black" stroke="black" points="925.3,-95.27 930.33,-85.95 920.58,-90.1 925.3,-95.27"/>
</g>
</g>
</svg>
